<svg width="436" height="298" viewBox="0 0 436 298" fill="none" xmlns="http://www.w3.org/2000/svg">
<g clip-path="url(#clip0_18_1739)">
<path opacity="0.1" d="M112.19 130.14C113.31 149.64 113.643 176.473 113.19 210.64C112.736 244.807 112.576 269.307 112.71 284.14C133.343 278.98 151.876 275.19 168.31 272.77C169.603 272.626 170.902 272.984 171.94 273.77C172.468 274.124 172.914 274.587 173.248 275.129C173.581 275.671 173.793 276.279 173.87 276.91C174.022 278.204 173.663 279.507 172.87 280.54C172.516 281.071 172.052 281.519 171.508 281.853C170.964 282.186 170.353 282.397 169.72 282.47C150.084 285.275 130.631 289.232 111.46 294.32C111.062 294.762 110.578 295.118 110.038 295.367C109.499 295.617 108.914 295.754 108.32 295.77C107.065 295.698 105.855 295.274 104.83 294.548C103.804 293.821 103.004 292.82 102.52 291.66C102.372 291 102.359 290.316 102.483 289.651C102.607 288.986 102.864 288.353 103.24 287.79C102.92 275.383 103 249.597 103.48 210.43C103.966 176.75 103.633 150.157 102.48 130.65C102.464 129.393 102.942 128.18 103.81 127.27C104.688 126.305 105.892 125.7 107.19 125.57C107.829 125.481 108.48 125.544 109.09 125.754C109.7 125.964 110.252 126.316 110.7 126.78C111.162 127.211 111.532 127.73 111.788 128.308C112.044 128.885 112.181 129.508 112.19 130.14V130.14Z" fill="#1A1A1A"/>
<path opacity="0.1" d="M174.07 160.6C180.843 149.32 186.89 139.81 192.21 132.07C193.07 131.031 194.265 130.324 195.59 130.07C196.201 129.942 196.832 129.952 197.439 130.097C198.046 130.242 198.613 130.52 199.1 130.91C200.126 131.693 200.85 132.805 201.15 134.06C201.32 134.639 201.342 135.251 201.217 135.841C201.091 136.431 200.821 136.98 200.43 137.44C194.617 145.993 188.653 155.327 182.54 165.44C181.793 166.529 180.672 167.304 179.39 167.62C178.785 167.783 178.153 167.824 177.532 167.742C176.911 167.659 176.312 167.455 175.77 167.14C175.223 166.837 174.746 166.423 174.37 165.923C173.995 165.423 173.729 164.85 173.59 164.24C173.423 163.632 173.38 162.997 173.462 162.372C173.545 161.746 173.751 161.144 174.07 160.6V160.6ZM189.3 183.32C189.46 193.48 189.42 211.21 189.18 236.51C188.94 261.81 189.063 279.54 189.55 289.7C189.591 291.033 189.115 292.331 188.22 293.32C187.794 293.793 187.27 294.167 186.684 294.417C186.099 294.668 185.466 294.788 184.83 294.77C183.535 294.797 182.28 294.32 181.33 293.44C180.865 293.035 180.495 292.533 180.245 291.97C179.994 291.407 179.87 290.796 179.88 290.18C179.387 279.873 179.263 262.063 179.51 236.75C179.757 211.437 179.797 193.627 179.63 183.32C179.673 182.051 180.196 180.845 181.095 179.948C181.994 179.051 183.201 178.53 184.47 178.49C185.727 178.475 186.941 178.952 187.85 179.82C188.331 180.263 188.71 180.806 188.96 181.41C189.211 182.015 189.327 182.666 189.3 183.32V183.32Z" fill="#1A1A1A"/>
<path opacity="0.1" d="M207.43 180.42C210.785 187.597 213.773 194.939 216.38 202.42C218.947 210.32 221.727 219.467 224.72 229.86C227.714 240.253 229.93 247.547 231.37 251.74L236.69 270.36C238.304 262.46 239.27 258.027 239.59 257.06C247.157 226.44 256.02 201.943 266.18 183.57C266.875 182.564 267.902 181.835 269.08 181.51C269.676 181.308 270.308 181.236 270.934 181.298C271.56 181.36 272.166 181.555 272.71 181.87C273.82 182.504 274.641 183.544 275 184.77C275.203 185.366 275.275 185.998 275.213 186.624C275.151 187.25 274.956 187.856 274.64 188.4C264.814 205.813 256.267 229.427 249 259.24C248.334 261.647 246.88 268.333 244.64 279.3C243.84 283.82 243.27 287.04 242.95 288.97C242.543 290.058 242.3 291.2 242.23 292.36C242.093 292.774 241.93 293.178 241.74 293.57L241.02 294.77C240.396 295.716 239.452 296.405 238.36 296.71C237.571 296.945 236.736 296.976 235.932 296.801C235.127 296.627 234.38 296.251 233.76 295.71C233.386 295.343 233.05 294.937 232.76 294.5C232.434 294.18 232.354 294.18 232.52 294.5C232.571 294.08 232.483 293.655 232.27 293.29V293.05L232.03 292.05L231.31 289.64L229.13 280.21C226.55 270.063 224.134 261.52 221.88 254.58L215.35 232.1C212.45 221.953 209.75 213.13 207.25 205.63C204.887 198.463 202.019 191.473 198.67 184.71C198.191 183.475 198.149 182.113 198.55 180.85C198.718 180.249 199.024 179.695 199.444 179.233C199.865 178.771 200.387 178.414 200.97 178.19C202.163 177.706 203.489 177.663 204.71 178.07C205.316 178.222 205.877 178.514 206.349 178.922C206.821 179.33 207.192 179.843 207.43 180.42V180.42Z" fill="#1A1A1A"/>
<path opacity="0.1" d="M287.21 183.57C287.37 193.883 287.33 212.053 287.09 238.08C286.85 264.107 286.97 282.28 287.45 292.6C287.521 294.013 287.044 295.399 286.12 296.47C285.695 296.942 285.173 297.316 284.589 297.566C284.005 297.816 283.375 297.937 282.74 297.92C281.441 297.949 280.183 297.472 279.23 296.59C278.748 296.145 278.37 295.6 278.119 294.994C277.869 294.388 277.753 293.735 277.78 293.08C277.3 282.613 277.18 264.36 277.42 238.32C277.66 212.28 277.7 194.03 277.54 183.57C277.496 182.233 277.973 180.932 278.87 179.94C279.295 179.466 279.819 179.09 280.404 178.84C280.99 178.589 281.623 178.47 282.26 178.49C283.555 178.463 284.809 178.94 285.76 179.82C286.257 180.304 286.643 180.89 286.894 181.537C287.144 182.184 287.252 182.877 287.21 183.57V183.57ZM286 153.1C286.744 153.88 287.196 154.894 287.279 155.969C287.362 157.044 287.072 158.114 286.457 159C285.841 159.886 284.939 160.532 283.903 160.829C282.866 161.126 281.759 161.056 280.768 160.631C279.777 160.206 278.963 159.452 278.464 158.496C277.965 157.54 277.812 156.441 278.03 155.385C278.247 154.329 278.823 153.38 279.659 152.7C280.496 152.019 281.542 151.648 282.62 151.65C283.252 151.648 283.878 151.776 284.46 152.026C285.041 152.275 285.565 152.641 286 153.1V153.1Z" fill="#1A1A1A"/>
<path opacity="0.1" d="M312.83 194.44C314.443 192.84 318.313 190.587 324.44 187.68C330.072 184.688 335.983 182.257 342.09 180.42C349.983 177.68 356.267 176.793 360.94 177.76C364.101 178.052 367.037 179.519 369.17 181.87C371.334 184.702 372.368 188.238 372.07 191.79C371.994 193.007 371.83 194.217 371.58 195.41C372.322 195.751 372.983 196.246 373.52 196.86C374.006 197.359 374.414 197.929 374.73 198.55C374.742 199.124 374.823 199.695 374.97 200.25C375.13 201.06 375.29 202.25 375.45 203.87C375.61 206.13 375.77 209.28 375.93 213.3C375.93 215.4 375.93 217.65 376.05 220.07C376.17 222.49 376.21 224.46 376.3 225.99C376.39 227.52 376.42 228.37 376.42 228.53C378.507 254.477 382.777 274.623 389.23 288.97C389.546 290.174 389.462 291.448 388.99 292.6C388.794 293.187 388.478 293.727 388.061 294.185C387.644 294.643 387.136 295.009 386.57 295.26C385.408 295.741 384.102 295.741 382.94 295.26C381.715 294.826 380.687 293.967 380.04 292.84C374.88 280.433 370.69 262.383 367.47 238.69C362.137 251.897 357.707 261.647 354.18 267.94C349.02 277.273 343.687 284.203 338.18 288.73C330.76 294.73 323.183 296.73 315.45 294.73C310.117 293.45 306.25 291.277 303.85 288.21C297.723 280.15 297.643 270.64 303.61 259.68C307.483 252.427 314.817 243.4 325.61 232.6L337.7 221.24L351 208.22C358.413 200.493 362.203 194.853 362.37 191.3V188.4C361.395 187.825 360.33 187.416 359.22 187.19C356 186.71 351.247 187.437 344.96 189.37C341.003 190.762 337.127 192.375 333.35 194.2C329.35 195.98 326.13 197.553 323.69 198.92C321.27 200.29 319.69 201.21 318.85 201.7C318.402 202.164 317.85 202.516 317.24 202.726C316.63 202.937 315.979 202.999 315.34 202.91C314.041 202.785 312.835 202.179 311.96 201.21C311.525 200.747 311.201 200.192 311.012 199.586C310.823 198.979 310.775 198.338 310.87 197.71C310.938 197.055 311.148 196.422 311.487 195.857C311.825 195.292 312.284 194.808 312.83 194.44V194.44ZM363.61 208.44L358 215C355.26 217.913 350.83 222.267 344.71 228.06L332.38 239.66C322.22 249.66 315.45 257.8 312.07 264.08C308.07 271.66 307.91 277.783 311.59 282.45C312.59 283.75 314.59 284.79 317.59 285.6C322.257 286.733 327.093 285.283 332.1 281.25C336.607 277.25 341.2 271.203 345.88 263.11C353.592 249.782 359.218 235.351 362.56 220.32C363.336 216.419 363.688 212.446 363.61 208.47V208.44Z" fill="#1A1A1A"/>
<g opacity="0.1">
<path d="M14.0898 41.9L42.7798 69.77L19.6798 102.42L435.7 63.99L407.01 36.12L430.11 3.45996L14.0898 41.9Z" fill="#1A1A1A"/>
</g>
<path d="M0 38.44L28.69 66.31L5.59 98.96L421.61 60.53L392.92 32.66L416.02 0L0 38.44Z" fill="#5BE0DE"/>
<g opacity="0.1">
<path d="M216.9 99.8799L223.56 119.52L215.17 138.49L336.05 143.9L329.39 124.26L337.78 105.29L216.9 99.8799Z" fill="#1A1A1A"/>
</g>
<path d="M211.64 95.79L218.3 115.43L209.91 134.4L330.79 139.81L324.13 120.16L332.52 101.2L211.64 95.79Z" fill="#FF5D88"/>
<path d="M112.19 124.47C113.31 143.97 113.643 170.807 113.19 204.98C112.736 239.153 112.576 263.65 112.71 278.47C133.343 273.31 151.876 269.523 168.31 267.11C169.604 266.958 170.906 267.316 171.94 268.11C172.47 268.462 172.918 268.925 173.251 269.467C173.584 270.009 173.795 270.618 173.87 271.25C174.019 272.541 173.661 273.839 172.87 274.87C172.515 275.401 172.051 275.85 171.507 276.185C170.963 276.519 170.354 276.733 169.72 276.81C150.085 279.616 130.632 283.569 111.46 288.65C111.062 289.093 110.579 289.451 110.039 289.702C109.5 289.953 108.915 290.092 108.32 290.11C107.066 290.032 105.859 289.606 104.835 288.88C103.81 288.154 103.008 287.157 102.52 286C102.372 285.34 102.359 284.656 102.483 283.991C102.607 283.326 102.864 282.693 103.24 282.13C102.92 269.717 103 243.927 103.48 204.76C103.966 171.08 103.633 144.487 102.48 124.98C102.468 123.724 102.945 122.512 103.81 121.6C104.686 120.634 105.891 120.031 107.19 119.91C107.829 119.818 108.481 119.88 109.091 120.09C109.702 120.301 110.253 120.654 110.7 121.12C111.163 121.548 111.533 122.066 111.79 122.642C112.046 123.218 112.182 123.84 112.19 124.47V124.47Z" fill="#FF5D88"/>
<path d="M174.07 154.93C180.843 143.65 186.89 134.143 192.21 126.41C193.059 125.346 194.256 124.617 195.59 124.35C196.202 124.224 196.833 124.236 197.44 124.383C198.047 124.529 198.614 124.809 199.1 125.2C200.127 125.977 200.852 127.087 201.15 128.34C201.32 128.919 201.343 129.531 201.217 130.121C201.091 130.711 200.821 131.26 200.43 131.72C194.617 140.273 188.653 149.623 182.54 159.77C181.792 160.855 180.671 161.628 179.39 161.94C178.786 162.108 178.153 162.152 177.531 162.069C176.909 161.987 176.31 161.78 175.77 161.46C175.222 161.158 174.745 160.744 174.369 160.244C173.993 159.744 173.728 159.17 173.59 158.56C173.425 157.953 173.382 157.32 173.465 156.697C173.547 156.073 173.753 155.473 174.07 154.93V154.93ZM189.3 177.66C189.46 187.807 189.42 205.533 189.18 230.84C188.94 256.147 189.063 273.877 189.55 284.03C189.589 285.366 189.113 286.665 188.22 287.66C187.792 288.131 187.268 288.504 186.683 288.754C186.098 289.005 185.466 289.126 184.83 289.11C183.535 289.137 182.281 288.66 181.33 287.78C180.866 287.375 180.496 286.873 180.246 286.31C179.995 285.747 179.87 285.136 179.88 284.52C179.387 274.2 179.263 256.39 179.51 231.09C179.757 205.79 179.797 187.98 179.63 177.66C179.67 176.389 180.193 175.181 181.092 174.282C181.991 173.383 183.199 172.86 184.47 172.82C185.726 172.81 186.938 173.286 187.85 174.15C188.331 174.595 188.71 175.14 188.961 175.746C189.211 176.352 189.327 177.005 189.3 177.66V177.66Z" fill="#FF5D88"/>
<path d="M207.43 174.76C210.788 181.935 213.776 189.278 216.38 196.76C218.946 204.66 221.726 213.807 224.72 224.2C227.713 234.593 229.93 241.887 231.37 246.08L236.69 264.69C238.303 256.803 239.27 252.37 239.59 251.39C247.156 220.77 256.02 196.273 266.18 177.9C266.875 176.894 267.901 176.165 269.08 175.84C269.676 175.637 270.309 175.565 270.935 175.629C271.561 175.693 272.167 175.891 272.71 176.21C273.824 176.839 274.646 177.88 275 179.11C275.202 179.704 275.274 180.334 275.212 180.959C275.15 181.583 274.955 182.187 274.64 182.73C264.813 200.137 256.266 223.75 249 253.57C248.333 255.99 246.88 262.68 244.64 273.64C243.84 278.15 243.27 281.37 242.95 283.31C242.543 284.395 242.301 285.534 242.23 286.69C242.095 287.104 241.931 287.508 241.74 287.9L241.02 289.11C240.398 290.056 239.452 290.743 238.36 291.04C237.571 291.275 236.735 291.306 235.931 291.131C235.127 290.956 234.38 290.581 233.76 290.04C233.39 289.668 233.055 289.263 232.76 288.83C232.433 288.497 232.353 288.497 232.52 288.83C232.573 288.41 232.485 287.984 232.27 287.62V287.38L232.03 286.38L231.31 283.96L229.13 274.53C226.55 264.377 224.133 255.837 221.88 248.91L215.35 226.42C212.45 216.267 209.75 207.443 207.25 199.95C204.884 192.787 202.017 185.8 198.67 179.04C198.191 177.801 198.149 176.436 198.55 175.17C198.717 174.568 199.024 174.015 199.444 173.553C199.864 173.091 200.387 172.734 200.97 172.51C202.163 172.031 203.488 171.988 204.71 172.39C205.317 172.544 205.88 172.839 206.352 173.251C206.824 173.663 207.194 174.179 207.43 174.76V174.76Z" fill="#FF5D88"/>
<path d="M287.21 177.9C287.37 188.22 287.33 206.393 287.09 232.42C286.85 258.447 286.97 276.617 287.45 286.93C287.521 288.343 287.044 289.729 286.12 290.8C285.696 291.273 285.174 291.648 284.59 291.899C284.006 292.149 283.375 292.269 282.74 292.25C281.441 292.279 280.183 291.802 279.23 290.92C278.749 290.477 278.37 289.934 278.119 289.33C277.869 288.725 277.753 288.074 277.78 287.42C277.3 276.94 277.18 258.687 277.42 232.66C277.66 206.633 277.7 188.38 277.54 177.9C277.496 176.563 277.973 175.262 278.87 174.27C279.296 173.797 279.82 173.423 280.406 173.173C280.991 172.922 281.623 172.802 282.26 172.82C283.555 172.793 284.809 173.27 285.76 174.15C286.257 174.634 286.643 175.22 286.894 175.867C287.144 176.514 287.252 177.207 287.21 177.9V177.9ZM286 147.44C286.458 147.877 286.822 148.402 287.071 148.984C287.32 149.566 287.448 150.192 287.448 150.825C287.448 151.458 287.32 152.084 287.071 152.666C286.822 153.248 286.458 153.773 286 154.21C285.323 154.871 284.467 155.319 283.538 155.498C282.61 155.678 281.648 155.581 280.774 155.221C279.899 154.86 279.15 154.251 278.618 153.469C278.085 152.687 277.794 151.766 277.78 150.82C277.772 149.864 278.051 148.928 278.58 148.132C279.109 147.336 279.864 146.717 280.748 146.353C281.632 145.99 282.604 145.899 283.54 146.093C284.476 146.286 285.333 146.756 286 147.44V147.44Z" fill="#FF5D88"/>
<path d="M312.83 188.78C314.443 187.167 318.313 184.91 324.44 182.01C330.07 179.017 335.982 176.589 342.09 174.76C349.983 172.02 356.267 171.133 360.94 172.1C364.103 172.384 367.043 173.852 369.17 176.21C371.334 179.039 372.368 182.571 372.07 186.12C371.994 187.34 371.83 188.553 371.58 189.75C372.324 190.088 372.985 190.583 373.52 191.2C374.009 191.697 374.417 192.267 374.73 192.89C374.742 193.461 374.823 194.028 374.97 194.58C375.13 195.387 375.29 196.597 375.45 198.21C375.61 200.47 375.77 203.613 375.93 207.64C375.93 209.73 375.93 211.99 376.05 214.4C376.17 216.81 376.21 218.8 376.3 220.33C376.39 221.86 376.42 222.71 376.42 222.87C378.507 248.817 382.777 268.963 389.23 283.31C389.546 284.511 389.462 285.782 388.99 286.93C388.796 287.518 388.48 288.059 388.063 288.517C387.646 288.976 387.137 289.341 386.57 289.59C385.996 289.833 385.379 289.958 384.755 289.958C384.132 289.958 383.514 289.833 382.94 289.59C381.714 289.159 380.684 288.3 380.04 287.17C374.88 274.757 370.69 256.7 367.47 233C362.137 246.22 357.707 255.97 354.18 262.25C349.02 271.583 343.687 278.513 338.18 283.04C330.76 289.04 323.183 291.057 315.45 289.09C310.117 287.797 306.25 285.62 303.85 282.56C297.723 274.5 297.643 264.99 303.61 254.03C307.483 246.783 314.817 237.76 325.61 226.96L337.7 215.59L351 202.56C358.433 194.853 362.233 189.213 362.4 185.64V182.73C361.425 182.156 360.36 181.75 359.25 181.53C356.03 181.037 351.277 181.76 344.99 183.7C341.031 185.092 337.155 186.708 333.38 188.54C329.38 190.313 326.16 191.883 323.72 193.25C321.3 194.62 319.72 195.55 318.88 196.03C318.433 196.496 317.882 196.849 317.272 197.06C316.661 197.27 316.009 197.332 315.37 197.24C314.072 197.119 312.866 196.516 311.99 195.55C311.55 195.081 311.223 194.517 311.034 193.901C310.845 193.286 310.799 192.636 310.9 192C310.971 191.356 311.18 190.735 311.513 190.179C311.846 189.623 312.296 189.146 312.83 188.78V188.78ZM363.61 202.78L358 209.33C355.26 212.23 350.83 216.563 344.71 222.33L332.42 234C322.26 244 315.49 252.14 312.11 258.42C308.11 265.987 307.95 272.11 311.63 276.79C312.63 278.08 314.63 279.13 317.63 279.93C322.297 281.057 327.133 279.607 332.14 275.58C336.647 271.58 341.24 265.537 345.92 257.45C353.631 244.121 359.256 229.691 362.6 214.66C363.362 210.755 363.701 206.778 363.61 202.8V202.78Z" fill="#FF5D88"/>
<g opacity="0.1">
<path d="M109.92 42.4299L112.92 72.8999L128.49 71.3499L129.04 76.8499L107.44 78.9999L103.86 42.9999L109.92 42.4299Z" fill="#333333"/>
<path d="M173.39 54.2701C174.39 64.5501 166.88 73.3401 156.14 74.4101C145.4 75.4801 136.28 68.3501 135.26 58.0701C134.24 47.7901 141.78 39.0701 152.52 38.0701C163.26 37.0701 172.37 44.0001 173.39 54.2701ZM141.39 57.4501C141.756 60.8701 143.462 64.0059 146.134 66.1707C148.807 68.3356 152.229 69.353 155.65 69.0001C158.156 68.7111 160.521 67.6884 162.449 66.0605C164.376 64.4325 165.78 62.2718 166.484 59.8492C167.188 57.4267 167.161 54.8502 166.406 52.4429C165.651 50.0356 164.203 47.9047 162.242 46.3175C160.281 44.7303 157.895 43.7574 155.383 43.5209C152.872 43.2844 150.346 43.7948 148.123 44.9881C145.901 46.1813 144.08 48.0043 142.889 50.2284C141.698 52.4526 141.191 54.9787 141.43 57.4901L141.39 57.4501Z" fill="#333333"/>
<path d="M191.05 70.9401C189.005 71.1501 186.939 70.8858 185.012 70.1679C183.085 69.4499 181.35 68.2974 179.94 66.8001L182.36 61.8901C184.98 64.2201 187.94 65.3301 190.36 65.0801C193.6 64.7601 195.3 62.5701 194.93 58.8701L193.02 39.6401L180.58 40.8801L180.04 35.4401L198.59 33.5901L201.07 58.4601C201.84 65.7101 198 70.2401 191.05 70.9401Z" fill="#333333"/>
<path d="M218.531 31.6101L222.121 67.6101L216.051 68.2101L212.471 32.2101L218.531 31.6101Z" fill="#333333"/>
<path d="M239.09 29.56L260.94 53.49L258.36 27.64L264.36 27.04L267.94 63.04L261.94 63.63L240.21 39.72L242.78 65.52L236.72 66.13L233.13 30.13L239.09 29.56Z" fill="#333333"/>
<path d="M285 25L286.6 40.6L305.67 38.7L304.11 23.08L310.17 22.48L313.76 58.48L307.69 59.08L306.21 44.18L287.14 46.08L288.63 61L282.56 61.61L278.98 25.61L285 25Z" fill="#333333"/>
<path d="M350.781 46.56L332.641 48.37L330.001 56.83L323.681 57.46L336.001 19.9L342.221 19.28L361.531 53.69L355.051 54.34L350.781 46.56ZM347.931 41.39L339.551 26.09L334.361 42.75L347.931 41.39Z" fill="#333333"/>
</g>
<path d="M106.41 41.0701L109.41 71.5401L125 70.0001L125.55 75.5001L103.91 77.6601L100.33 41.6601L106.41 41.0701Z" fill="#333333"/>
<path d="M169.88 52.9099C170.88 63.1899 163.37 71.9799 152.63 73.0499C141.89 74.1199 132.77 66.9999 131.75 56.7099C130.73 46.4199 138.26 37.7099 149.01 36.7099C159.76 35.7099 168.85 42.6299 169.88 52.9099ZM137.88 56.0899C138.255 59.5027 139.965 62.6284 142.637 64.7848C145.308 66.9412 148.725 67.9532 152.14 67.5999C154.645 67.3089 157.009 66.2848 158.935 64.6559C160.861 63.0269 162.263 60.8657 162.965 58.4432C163.668 56.0207 163.639 53.4448 162.884 51.0383C162.128 48.6318 160.679 46.5019 158.718 44.9156C156.757 43.3294 154.371 42.3574 151.86 42.1215C149.349 41.8857 146.824 42.3964 144.601 43.5897C142.379 44.7831 140.559 46.6059 139.368 48.8296C138.178 51.0533 137.671 53.5789 137.91 56.0899H137.88Z" fill="#333333"/>
<path d="M187.53 69.58C185.486 69.7899 183.421 69.5256 181.496 68.8076C179.571 68.0896 177.837 66.9372 176.43 65.44L178.85 60.53C181.47 62.86 184.43 63.97 186.9 63.72C190.14 63.4 191.84 61.21 191.47 57.5L189.55 38.28L177.12 39.52L176.57 34.08L195.13 32.23L197.6 57.1C198.33 64.35 194.47 68.88 187.53 69.58Z" fill="#333333"/>
<path d="M215 30.25L218.58 66.25L212.52 66.86L208.94 30.86L215 30.25Z" fill="#333333"/>
<path d="M235.58 28.1999L257.43 52.1299L254.85 26.2799L260.85 25.6799L264.44 61.6799L258.44 62.2699L236.7 38.3599L239.27 64.1599L233.2 64.7699L229.62 28.7699L235.58 28.1999Z" fill="#333333"/>
<path d="M281.53 23.6201L283.09 39.2401L302.15 37.3401L300.6 21.7201L306.66 21.1201L310.25 57.1201L304.18 57.7201L302.7 42.8201L283.63 44.7201L285.11 59.6301L279.05 60.2301L275.47 24.2301L281.53 23.6201Z" fill="#333333"/>
<path d="M347.27 45.1999L329.13 46.9999L326.49 55.4599L320.17 56.0899L332.47 18.5399L338.68 17.9199L358 52.3299L351.52 52.9799L347.27 45.1999ZM344.42 39.9999L336 24.7299L330.81 41.3899L344.42 39.9999Z" fill="#333333"/>
<g opacity="0.1">
<path d="M264.38 117.24C264 124.75 258 130 250.15 129.59L239.58 129.06L240.88 103.06L251.55 103.6C259.37 103.93 264.75 109.68 264.38 117.24ZM259.95 117.05C260.041 115.846 259.886 114.636 259.494 113.493C259.103 112.351 258.482 111.3 257.671 110.406C256.859 109.511 255.874 108.791 254.776 108.29C253.677 107.789 252.487 107.516 251.28 107.49L245.07 107.18L244.17 125.33L250.57 125.65C251.763 125.743 252.961 125.591 254.093 125.202C255.224 124.814 256.263 124.198 257.147 123.392C258.031 122.586 258.74 121.607 259.231 120.517C259.721 119.426 259.983 118.246 260 117.05H259.95Z" fill="#1A1A1A"/>
<path d="M292.3 125.78L279.16 125.13L276.38 130.89L271.8 130.66L284.59 105.19L289.09 105.41L299.19 132L294.5 131.77L292.3 125.78ZM290.82 121.78L286.48 110L281 121.31L290.82 121.78Z" fill="#1A1A1A"/>
</g>
<path d="M263.83 114.24C263.45 121.75 257.49 126.98 249.6 126.59L239 126.06L240.29 100.06L250.97 100.59C258.82 100.93 264.2 106.69 263.83 114.24ZM259.4 114.06C259.493 112.855 259.339 111.644 258.948 110.5C258.556 109.357 257.936 108.305 257.125 107.409C256.313 106.514 255.328 105.793 254.228 105.291C253.129 104.789 251.938 104.516 250.73 104.49L244.52 104.18L243.62 122.34L250.02 122.65C251.208 122.737 252.401 122.581 253.526 122.191C254.652 121.8 255.685 121.184 256.564 120.379C257.442 119.575 258.147 118.599 258.635 117.513C259.122 116.426 259.383 115.251 259.4 114.06V114.06Z" fill="white"/>
<path d="M291.75 122.79L278.61 122.13L275.83 127.89L271.25 127.66L284 102.19L288.5 102.41L298.64 129L293.95 128.77L291.75 122.79ZM290.27 118.79L285.93 107L280.44 118.33L290.27 118.79Z" fill="white"/>
</g>
<defs>
<clipPath id="clip0_18_1739">
<rect width="435.7" height="297.92" fill="white"/>
</clipPath>
</defs>
</svg>
